<svg width="49" height="37" viewBox="0 0 49 37" fill="none" xmlns="http://www.w3.org/2000/svg">
<path d="M40.1623 18.0677C40.1623 19.2749 39.689 20.4328 38.8465 21.2866C38.004 22.1404 36.8612 22.6203 35.6695 22.6206C35.4829 22.596 35.2949 22.5843 35.1067 22.5855C34.3152 22.6998 33.6409 22.1985 33.0462 21.7631C32.6888 21.5037 32.2186 21.2354 31.9509 20.8836C31.2028 20.3339 30.4316 19.966 29.4361 19.966C28.0123 19.966 26.8634 20.6989 26.0271 21.7411C25.6104 22.3275 25.4223 22.6514 25.1184 23.1015C24.3091 24.306 23.2212 25.2917 21.9496 25.9727C20.678 26.6536 19.2612 27.009 17.8229 27.008C15.482 27.008 13.237 26.0659 11.5818 24.389C9.9265 22.7121 8.99658 20.4377 8.99658 18.0662C8.99658 15.6947 9.9265 13.4203 11.5818 11.7434C13.237 10.0665 15.482 9.12439 17.8229 9.12439C19.2655 9.12327 20.6862 9.48088 21.9605 10.1658C23.2348 10.8508 24.3236 11.8422 25.1314 13.0529C25.4208 13.4839 25.8216 13.9017 26.0329 14.3839C26.8649 15.4306 27.9935 16.143 29.4231 16.143C30.4605 16.143 31.3041 15.7135 32.0695 15.1169C32.3589 14.8985 32.7221 14.7225 32.9464 14.4411C33.5758 13.9533 34.3218 13.6437 35.1081 13.544C35.2948 13.5204 35.4828 13.5086 35.671 13.5088C36.2617 13.508 36.8468 13.6255 37.3926 13.8544C37.9385 14.0834 38.4343 14.4193 38.8516 14.8429C39.2689 15.2665 39.5995 15.7694 39.8245 16.3228C40.0494 16.8762 40.1642 17.4692 40.1623 18.0677Z" fill="#FCC700"/>
<path d="M45.6113 21.4334C47.4452 21.4334 48.932 19.9272 48.932 18.0692C48.932 16.2112 47.4452 14.705 45.6113 14.705C43.7773 14.705 42.2905 16.2112 42.2905 18.0692C42.2905 19.9272 43.7773 21.4334 45.6113 21.4334Z" fill="url(#paint0_linear_883_6498)"/>
<path d="M33.0777 21.7225C33.697 22.2077 34.3351 22.602 35.1035 22.5932C33.5523 28.6765 28.6457 33.7602 22.6771 35.4694C16.7085 37.1786 9.90061 35.4489 5.43534 31.0879C0.970075 26.7269 -0.986192 19.8989 0.481008 13.7906C1.39982 9.96033 3.64692 6.50528 6.65511 4.0221C9.88009 1.35368 13.9342 -0.0704361 18.0975 0.00268175C21.0767 0.0501053 23.9976 0.845921 26.5983 2.31875C28.6791 3.52376 30.5023 5.13625 31.9618 7.06226C33.4212 8.98827 34.4877 11.1893 35.0991 13.537C33.5436 13.6455 32.4773 15.1495 31.0621 15.8165C30.3866 16.1219 29.6416 16.235 28.9074 16.1436C28.1731 16.0522 27.4774 15.7597 26.895 15.2976C26.0094 14.5749 25.4755 13.5151 24.781 12.6048C22.5469 9.67302 18.3971 8.4153 14.9418 9.61878C11.4865 10.8223 8.97601 14.4004 8.99193 18.1032C9.00784 21.806 11.5458 25.3622 15.0127 26.5364C18.4795 27.7105 22.6192 26.4147 24.8287 23.4654C25.4741 22.6034 25.9747 21.6125 26.7864 20.9104C27.4261 20.3765 28.2088 20.0486 29.0338 19.9686C29.8589 19.8887 30.6887 20.0605 31.4166 20.4618C32.0041 20.8019 32.5322 21.2959 33.0777 21.7225Z" fill="url(#paint1_linear_883_6498)"/>
<defs>
<linearGradient id="paint0_linear_883_6498" x1="-0.00215497" y1="18.0619" x2="48.9334" y2="18.0619" gradientUnits="userSpaceOnUse">
<stop stop-color="#001950"/>
<stop offset="0.04" stop-color="#001954"/>
<stop offset="0.42" stop-color="#001C6F"/>
<stop offset="0.75" stop-color="#001D80"/>
<stop offset="1" stop-color="#001E86"/>
</linearGradient>
<linearGradient id="paint1_linear_883_6498" x1="-28.5201" y1="92.9226" x2="20.4155" y2="92.9226" gradientUnits="userSpaceOnUse">
<stop stop-color="#001950"/>
<stop offset="0.04" stop-color="#001954"/>
<stop offset="0.42" stop-color="#001C6F"/>
<stop offset="0.75" stop-color="#001D80"/>
<stop offset="1" stop-color="#001E86"/>
</linearGradient>
</defs>
</svg>
